<?xml version="1.0" standalone="no"?>
<!DOCTYPE svg PUBLIC "-//W3C//DTD SVG 20010904//EN"
 "http://www.w3.org/TR/2001/REC-SVG-20010904/DTD/svg10.dtd">
<svg version="1.0" xmlns="http://www.w3.org/2000/svg"
 width="960.000000pt" height="960.000000pt" viewBox="0 0 960.000000 960.000000"
 preserveAspectRatio="xMidYMid meet">
<metadata>
Created by potrace 1.16, written by Peter Selinger 2001-2019
</metadata>
<g transform="translate(0.000000,960.000000) scale(0.100000,-0.100000)"
fill="#ffffff" stroke="none">
<path d="M4476 7429 c-319 -15 -621 -51 -956 -114 -230 -44 -280 -58 -321 -92
-49 -42 -59 -77 -59 -213 0 -111 2 -121 18 -116 49 14 214 51 344 76 846 165
1750 165 2596 0 130 -25 295 -62 345 -76 16 -5 17 5 17 121 0 139 -7 164 -60
209 -39 33 -90 47 -320 91 -538 102 -1064 140 -1604 114z"/>
<path d="M4475 6839 c-559 -26 -1147 -129 -1660 -290 -148 -47 -598 -208 -690
-246 -57 -24 -137 -85 -171 -130 -53 -69 -67 -111 -72 -215 -4 -93 -5 -97 -31
-106 -14 -6 -78 -29 -141 -52 -315 -113 -498 -254 -615 -475 -55 -102 -96
-295 -63 -295 11 0 297 89 433 134 39 13 158 52 265 86 107 34 305 97 440 140
135 43 337 107 450 143 298 95 313 99 403 99 160 -1 316 -79 410 -204 33 -44
76 -129 90 -176 8 -25 13 -403 16 -1197 l6 -1160 30 -73 c59 -144 167 -255
304 -313 105 -44 198 -53 466 -43 238 9 475 10 965 3 272 -4 288 -3 355 18
192 61 329 205 380 398 13 52 15 204 15 1170 0 1231 -2 1179 66 1305 93 170
264 272 454 271 93 0 94 0 440 -111 124 -39 259 -82 300 -95 110 -35 302 -96
500 -160 96 -31 195 -62 220 -70 25 -7 151 -47 280 -89 129 -42 241 -76 248
-76 18 0 15 65 -8 154 -56 222 -232 418 -485 543 -33 16 -114 49 -180 72 -66
24 -132 47 -146 53 -26 9 -27 12 -31 111 -4 81 -10 111 -29 147 -30 59 -124
151 -180 177 -79 37 -557 209 -739 266 -716 224 -1506 323 -2295 286z"/>
<path d="M1540 4929 c-52 -16 -124 -38 -160 -48 -187 -53 -317 -92 -337 -101
l-23 -10 0 -1305 c0 -1240 1 -1306 18 -1301 9 3 94 17 187 31 255 39 326 52
375 70 172 61 288 209 311 398 6 51 9 466 7 1102 l-3 1020 -24 45 c-43 82
-119 130 -206 129 -27 0 -93 -14 -145 -30z"/>
<path d="M7815 4935 c-53 -28 -76 -52 -105 -107 -20 -36 -20 -61 -20 -1116 0
-957 2 -1084 16 -1133 43 -145 154 -264 294 -314 25 -9 158 -34 295 -56 138
-22 258 -42 268 -45 16 -5 17 62 17 1304 l0 1309 -147 43 c-82 23 -177 51
-213 61 -36 10 -110 32 -165 49 -125 37 -177 38 -240 5z"/>
</g>
</svg>
