<?xml version="1.0" standalone="no"?>
<!DOCTYPE svg PUBLIC "-//W3C//DTD SVG 20010904//EN"
 "http://www.w3.org/TR/2001/REC-SVG-20010904/DTD/svg10.dtd">
<svg version="1.0" xmlns="http://www.w3.org/2000/svg"
 width="960.000000pt" height="241.000000pt" viewBox="0 0 960.000000 241.000000"
 preserveAspectRatio="xMidYMid meet">
<metadata>
Created by potrace 1.16, written by Peter Selinger 2001-2019
</metadata>
<g transform="translate(0.000000,241.000000) scale(0.100000,-0.100000)"
fill="#ffffff" stroke="none">
<path d="M6143 2129 c-75 -26 -157 -95 -195 -166 -15 -27 -32 -81 -39 -120
-22 -133 30 -273 128 -348 91 -69 226 -99 345 -76 75 15 169 63 204 104 l25
30 -43 40 c-24 22 -58 54 -76 71 -30 28 -35 29 -45 15 -50 -68 -162 -90 -228
-46 -93 62 -96 243 -5 298 69 42 154 33 213 -24 37 -35 27 -40 130 57 l53 50
-36 37 c-20 21 -64 50 -98 66 -53 24 -75 28 -166 30 -86 3 -116 -1 -167 -18z"/>
<path d="M6848 2131 c-98 -32 -173 -97 -217 -191 -36 -77 -42 -211 -12 -290
104 -277 537 -324 705 -76 142 209 42 487 -200 561 -68 20 -205 18 -276 -4z
m237 -205 c26 -20 39 -41 51 -82 36 -124 -32 -234 -145 -234 -90 0 -151 74
-151 182 0 98 76 173 167 164 26 -2 57 -14 78 -30z"/>
<path d="M7613 2132 c-60 -22 -112 -59 -145 -104 -19 -28 -23 -45 -23 -113 0
-68 4 -85 23 -112 35 -49 101 -83 213 -109 116 -28 139 -38 139 -63 0 -25 -19
-31 -94 -31 -66 0 -154 21 -193 47 -29 20 -31 17 -74 -80 -32 -76 -33 -79 -15
-93 24 -17 111 -43 191 -56 74 -12 194 -4 257 17 129 45 199 179 152 291 -32
76 -77 103 -241 145 -65 16 -120 35 -124 41 -13 21 10 47 46 54 44 8 116 -3
180 -27 27 -10 52 -15 56 -11 10 12 59 141 59 156 0 8 -25 24 -57 37 -82 31
-275 38 -350 11z"/>
<path d="M3408 2133 l-28 -4 0 -90 0 -89 99 0 c83 0 100 -3 105 -17 4 -9 6
-125 6 -257 l-1 -241 115 -3 116 -3 2 258 3 258 103 3 103 3 -3 92 -3 92 -295
1 c-162 1 -307 -1 -322 -3z"/>
<path d="M4095 2132 c-3 -3 -5 -162 -5 -354 l0 -348 120 0 120 0 -2 353 -3
352 -113 1 c-62 0 -114 -2 -117 -4z"/>
<path d="M4416 2133 c-3 -4 -6 -163 -6 -355 l0 -348 115 0 114 0 3 156 3 156
130 -156 129 -156 98 0 98 0 -2 353 -3 352 -110 0 -110 0 -5 -154 -5 -155
-120 144 c-66 79 -123 148 -127 154 -7 11 -192 19 -202 9z"/>
<path d="M5411 2062 c-32 -72 -69 -155 -146 -332 -18 -41 -51 -115 -73 -165
-21 -49 -43 -100 -46 -113 l-8 -23 123 3 122 3 20 58 19 57 133 0 134 0 22
-60 22 -60 123 0 c68 0 124 2 124 4 0 4 -168 393 -242 561 -22 50 -44 102 -50
118 l-10 27 -116 0 -117 0 -34 -78z"/>
<path d="M1115 1986 c-115 -17 -146 -25 -167 -44 -17 -14 -25 -62 -12 -74 3
-3 31 0 62 7 177 41 528 45 705 7 48 -10 89 -16 92 -14 10 11 4 70 -7 80 -50
40 -488 65 -673 38z"/>
<path d="M1190 1843 c-93 -9 -259 -42 -320 -63 -236 -81 -257 -94 -262 -156
-2 -22 -14 -31 -74 -60 -40 -19 -86 -50 -102 -69 -29 -32 -58 -103 -47 -114 5
-4 67 15 359 110 133 43 186 48 232 20 61 -37 64 -56 64 -393 0 -285 1 -305
20 -336 11 -18 34 -41 52 -52 30 -18 51 -20 256 -20 236 0 249 2 290 49 39 44
40 64 41 415 l1 278 39 39 c33 34 45 39 83 39 24 0 100 -18 168 -40 260 -84
352 -111 357 -106 9 9 -15 78 -35 101 -30 36 -88 75 -134 91 -41 14 -46 19
-52 53 -7 48 -35 71 -127 105 -219 80 -421 117 -639 114 -74 -1 -151 -3 -170
-5z"/>
<path d="M460 1335 l-75 -22 0 -339 0 -339 35 3 c98 8 140 23 168 59 l27 36 0
293 c0 368 5 357 -155 309z"/>
<path d="M2142 1344 c-22 -15 -22 -17 -22 -311 0 -291 0 -297 23 -330 24 -35
49 -48 112 -58 22 -3 52 -8 68 -11 l27 -6 -2 343 -3 343 -75 22 c-92 27 -100
28 -128 8z"/>
<path d="M3785 1351 c-57 -14 -156 -74 -192 -115 -127 -149 -121 -364 15 -501
54 -54 99 -79 179 -100 199 -52 397 33 476 205 28 62 29 70 25 171 -4 101 -6
108 -42 167 -45 74 -81 106 -166 146 -57 27 -77 31 -165 33 -55 1 -114 -2
-130 -6z m198 -209 c61 -36 88 -166 49 -242 -41 -83 -154 -108 -224 -49 -80
65 -83 207 -6 279 45 41 122 46 181 12z"/>
<path d="M2610 990 l0 -350 110 0 109 0 3 148 3 147 33 -54 c18 -29 52 -82 74
-117 l41 -64 53 0 53 0 73 122 73 122 3 -152 3 -152 109 0 110 0 0 350 0 350
-102 0 -103 -1 -95 -161 c-52 -89 -102 -170 -110 -181 -14 -17 -23 -6 -125
162 l-110 181 -102 0 -103 0 0 -350z"/>
<path d="M4330 990 l0 -350 115 0 114 0 3 155 3 155 129 -155 130 -155 98 0
98 0 0 350 0 350 -115 0 -114 0 -3 -152 -3 -152 -125 151 -125 151 -102 1
-103 1 0 -350z"/>
<path d="M5070 1250 l0 -89 101 -3 100 -3 2 -255 2 -255 117 -3 118 -3 2 258
3 258 103 3 102 3 0 89 0 90 -325 0 -325 0 0 -90z"/>
<path d="M5750 990 l0 -350 293 2 292 3 0 85 0 85 -178 3 -178 2 3 43 3 42
148 3 148 3 -3 82 -3 82 -147 3 -148 3 0 39 0 40 170 0 170 0 0 90 0 90 -285
0 -285 0 0 -350z"/>
<path d="M6395 1318 c-4 -19 -3 -288 4 -620 l1 -58 115 0 114 0 3 88 3 87 30
0 c26 0 36 -10 87 -87 l58 -88 125 0 c69 0 125 2 125 5 0 3 -30 50 -67 106
l-67 100 41 37 c52 48 74 92 80 162 11 113 -34 198 -135 257 l-47 28 -232 3
-232 4 -6 -24z m396 -187 c27 -33 24 -77 -6 -106 -21 -22 -33 -25 -90 -25
l-65 0 0 81 0 81 71 -4 c60 -3 74 -8 90 -27z"/>
<path d="M7120 990 l0 -350 120 0 120 0 0 90 0 90 29 0 c25 0 36 -11 88 -87
l60 -88 126 -3 c70 -1 127 0 127 3 0 3 -31 52 -70 109 l-69 104 26 17 c90 59
124 172 88 292 -12 39 -27 62 -64 95 -77 70 -116 78 -367 78 l-214 0 0 -350z
m379 155 c48 -24 56 -81 16 -120 -21 -22 -33 -25 -90 -25 l-65 0 0 80 0 80 55
0 c31 0 69 -7 84 -15z"/>
<path d="M7840 990 l0 -350 290 0 290 0 0 90 0 90 -176 0 -175 0 3 43 3 42
148 3 148 3 -3 82 -3 82 -147 3 -148 3 0 39 0 40 170 0 170 0 0 90 0 90 -285
0 -285 0 0 -350z"/>
<path d="M8450 1335 c0 -9 37 -73 136 -237 129 -214 124 -199 124 -338 l0
-120 115 0 115 0 0 121 0 122 52 91 c29 50 66 114 84 141 39 63 124 212 124
220 0 3 -51 5 -114 5 l-113 0 -68 -116 c-37 -63 -71 -112 -75 -107 -5 4 -35
55 -68 113 l-61 105 -125 3 c-69 1 -126 0 -126 -3z"/>
<path d="M2617 533 c-4 -3 -7 -53 -7 -110 l0 -103 3305 0 3306 0 -3 108 -3
107 -3296 3 c-1813 1 -3299 -1 -3302 -5z"/>
</g>
</svg>
